<svg width="372" height="760" viewBox="0 0 372 760" fill="none" xmlns="http://www.w3.org/2000/svg">
  <rect x="40" y="20" width="292" height="720" rx="44" fill="#111111"/>
  <rect x="47" y="27" width="278" height="706" rx="38" fill="#272727"/>
  <rect x="58" y="44" width="256" height="672" rx="34" fill="#EDEBFA"/>
  <rect x="152" y="58" width="68" height="16" rx="8" fill="#0D0D0D"/>
  <circle cx="275" cy="66" r="7" fill="#111111"/>

  <rect x="74" y="96" width="224" height="88" rx="18" fill="#D9D4F3"/>
  <circle cx="103" cy="130" r="19" fill="#B6B1D4"/>
  <rect x="132" y="112" width="64" height="14" rx="7" fill="#4B4865"/>
  <rect x="132" y="132" width="38" height="10" rx="5" fill="#7A7890"/>
  <rect x="132" y="148" width="88" height="10" rx="5" fill="#8E8AA9"/>
  <circle cx="272" cy="140" r="16" fill="#6B4AF5"/>

  <rect x="74" y="198" width="224" height="78" rx="16" fill="#CEC9EC"/>
  <rect x="88" y="214" width="102" height="10" rx="5" fill="#7B7698"/>
  <rect x="88" y="232" width="136" height="10" rx="5" fill="#8E8AA8"/>
  <rect x="88" y="250" width="96" height="10" rx="5" fill="#A39FBB"/>
  <rect x="242" y="210" width="42" height="52" rx="10" fill="#A8A2C8"/>

  <rect x="74" y="290" width="106" height="134" rx="16" fill="#E0DCF6"/>
  <rect x="192" y="290" width="106" height="134" rx="16" fill="#E0DCF6"/>
  <rect x="90" y="314" width="48" height="10" rx="5" fill="#8E8AA8"/>
  <rect x="90" y="334" width="30" height="30" rx="8" fill="#B4AFD2"/>
  <rect x="90" y="372" width="62" height="12" rx="6" fill="#4C486A"/>
  <rect x="208" y="314" width="56" height="10" rx="5" fill="#8E8AA8"/>
  <rect x="208" y="334" width="30" height="30" rx="8" fill="#B4AFD2"/>
  <rect x="208" y="372" width="66" height="12" rx="6" fill="#4C486A"/>

  <rect x="74" y="438" width="106" height="134" rx="16" fill="#E0DCF6"/>
  <rect x="192" y="438" width="106" height="134" rx="16" fill="#E0DCF6"/>
  <rect x="90" y="462" width="58" height="10" rx="5" fill="#8E8AA8"/>
  <rect x="90" y="482" width="30" height="30" rx="8" fill="#B4AFD2"/>
  <rect x="90" y="520" width="54" height="12" rx="6" fill="#4C486A"/>
  <rect x="208" y="462" width="52" height="10" rx="5" fill="#8E8AA8"/>
  <rect x="208" y="482" width="30" height="30" rx="8" fill="#B4AFD2"/>
  <rect x="208" y="520" width="68" height="12" rx="6" fill="#4C486A"/>

  <rect x="74" y="588" width="224" height="66" rx="20" fill="#D9D4F3"/>
  <circle cx="186" cy="621" r="22" fill="#6B4AF5"/>
  <rect x="100" y="618" width="28" height="7" rx="3.5" fill="#76728E"/>
  <rect x="244" y="618" width="28" height="7" rx="3.5" fill="#76728E"/>

  <rect x="151" y="694" width="70" height="8" rx="4" fill="#171717"/>
</svg>
